<?xml version="1.0" standalone="no"?><svg xmlns="http://www.w3.org/2000/svg" viewBox="0 0 1440 320"><path fill="#ffd700" fill-opacity="1" d="M0,192L17.1,160C34.3,128,69,64,103,74.7C137.1,85,171,171,206,218.7C240,267,274,277,309,282.7C342.9,288,377,288,411,261.3C445.7,235,480,181,514,181.3C548.6,181,583,235,617,234.7C651.4,235,686,181,720,138.7C754.3,96,789,64,823,53.3C857.1,43,891,53,926,74.7C960,96,994,128,1029,144C1062.9,160,1097,160,1131,149.3C1165.7,139,1200,117,1234,101.3C1268.6,85,1303,75,1337,64C1371.4,53,1406,43,1423,37.3L1440,32L1440,320L1422.9,320C1405.7,320,1371,320,1337,320C1302.9,320,1269,320,1234,320C1200,320,1166,320,1131,320C1097.1,320,1063,320,1029,320C994.3,320,960,320,926,320C891.4,320,857,320,823,320C788.6,320,754,320,720,320C685.7,320,651,320,617,320C582.9,320,549,320,514,320C480,320,446,320,411,320C377.1,320,343,320,309,320C274.3,320,240,320,206,320C171.4,320,137,320,103,320C68.6,320,34,320,17,320L0,320Z"></path></svg>